<svg xmlns="http://www.w3.org/2000/svg" viewBox="490 270 110 80" width="100%" height="100%">
<style>
  path { fill: #ffffff; }
</style>
<path transform="matrix(1,0,0,-1,518.3417,290.28669)" d="M0 0C-1.045-1.667-2.43-2.961-4.156-3.885-5.884-4.809-7.73-5.27-9.697-5.27-11.587-5.27-13.373-4.798-15.06-3.854-16.745-2.912-18.091-1.606-19.095 .06-20.099 1.727-20.601 3.584-20.601 5.632-20.601 8.001-20.109 10.039-19.124 11.746-18.142 13.453-16.826 14.737-15.178 15.601-13.532 16.464-11.707 16.895-9.697 16.895-7.691 16.895-5.833 16.444-4.127 15.54-2.42 14.638-1.045 13.332 0 11.626 1.043 9.918 1.566 7.921 1.566 5.632 1.566 3.544 1.043 1.666 0 0M1.806-9.486H7.468V21.052H1.745V13.462C.782 15.952-.905 17.939-3.314 19.426-5.722 20.91-8.372 21.655-11.264 21.655-14.116 21.655-16.677 21.012-18.943 19.726-21.214 18.441-23 16.584-24.304 14.155-25.609 11.725-26.263 8.885-26.263 5.632-26.263 2.741-25.59 .09-24.245-2.318-22.899-4.728-21.062-6.625-18.733-8.01-16.404-9.396-13.814-10.088-10.964-10.088-8.152-10.088-5.553-9.316-3.164-7.769-.774-6.224 .881-4.207 1.806-1.716Z" />
<path transform="matrix(1,0,0,-1,562.2523,291.28)" d="M0 0-5.242 2.108C-6.125 .181-7.491-1.376-9.337-2.56-11.184-3.745-13.213-4.337-15.42-4.337-17.348-4.337-19.146-3.865-20.811-2.921-22.479-1.979-23.813-.663-24.817 1.023-25.821 2.71-26.323 4.577-26.323 6.625-26.323 8.833-25.831 10.791-24.847 12.498-23.864 14.205-22.539 15.53-20.872 16.473-19.206 17.417-17.369 17.889-15.359 17.889-13.192 17.889-11.203 17.336-9.398 16.233-7.59 15.128-6.226 13.612-5.302 11.685L-.06 13.672C-1.226 16.362-3.203 18.531-5.995 20.178-8.785 21.824-11.908 22.648-15.359 22.648-18.492 22.648-21.313 21.994-23.823 20.69-26.333 19.385-28.322 17.538-29.787 15.148-31.252 12.759-31.985 9.958-31.985 6.746-31.985 3.735-31.242 1.023-29.756-1.385-28.271-3.795-26.253-5.682-23.703-7.047-21.154-8.413-18.371-9.095-15.359-9.095-11.908-9.095-8.804-8.262-6.055-6.596-3.304-4.929-1.286-2.732 0 0" />
<path transform="matrix(1,0,0,-1,572.3699,288.268)" d="M0 0 3.374 3.132 15.782-11.505H21.926L7.289 6.204 19.696 18.37H13.493L.06 5.842V28.249H-5.662V-11.505H0Z" />
<path transform="matrix(1,0,0,-1,451.2111,318.315)" d="M0 0C1.023 1.706 2.387 3.001 4.096 3.885 5.802 4.768 7.658 5.21 9.666 5.21 11.674 5.21 13.511 4.778 15.178 3.915 16.844 3.051 18.169 1.767 19.154 .06 20.136-1.647 20.628-3.685 20.628-6.054 20.628-8.102 20.126-9.959 19.122-11.626 18.118-13.292 16.774-14.598 15.087-15.54 13.402-16.484 11.614-16.956 9.727-16.956 7.759-16.956 5.911-16.495 4.185-15.57 2.459-14.647 1.074-13.352 .029-11.686-1.016-10.019-1.537-8.142-1.537-6.054-1.537-3.725-1.025-1.707 0 0M0 39.714C1.023 41.421 2.387 42.715 4.096 43.599 5.802 44.482 7.658 44.924 9.666 44.924 11.674 44.924 13.511 44.492 15.178 43.629 16.844 42.765 18.169 41.481 19.154 39.775 20.136 38.067 20.628 36.029 20.628 33.66 20.628 31.612 20.126 29.755 19.122 28.089 18.118 26.422 16.774 25.117 15.087 24.174 13.402 23.23 11.614 22.758 9.727 22.758 7.759 22.758 5.911 23.22 4.185 24.144 2.459 25.067 1.074 26.362 .029 28.028-1.016 29.695-1.537 31.572-1.537 33.66-1.537 35.989-1.025 38.007 0 39.714M-1.778 18.581V26.312C-.895 23.822 .753 21.804 3.162 20.259 5.571 18.712 8.18 17.94 10.991 17.94 13.842 17.94 16.433 18.633 18.762 20.018 21.089 21.403 22.928 23.3 24.273 25.71 25.619 28.119 26.29 30.77 26.29 33.66 26.29 36.913 25.639 39.753 24.333 42.183 23.027 44.613 21.241 46.47 18.973 47.755 16.704 49.04 14.143 49.683 11.293 49.683 8.361 49.683 5.691 48.939 3.282 47.454 .872 45.968-.813 43.98-1.778 41.491V58.296H-7.44V18.581 18.542-21.172H-1.778V-13.402C-.895-15.892 .753-17.91 3.162-19.455 5.571-21.002 8.18-21.774 10.991-21.774 13.842-21.774 16.433-21.082 18.762-19.696 21.089-18.311 22.928-16.414 24.273-14.004 25.619-11.595 26.29-8.944 26.29-6.054 26.29-2.801 25.639 .039 24.333 2.469 23.027 4.898 21.241 6.755 18.973 8.041 16.704 9.326 14.143 9.969 11.293 9.969 8.361 9.969 5.691 9.225 3.282 7.74 .872 6.253-.813 4.266-1.778 1.776V18.542Z" />
<path transform="matrix(1,0,0,-1,487.7416,322.2609)" d="M0 0C.2 1.846 .804 3.473 1.808 4.879 2.812 6.285 4.067 7.368 5.572 8.132 7.078 8.894 8.653 9.276 10.301 9.276 11.987 9.276 13.593 8.894 15.12 8.132 16.645 7.368 17.92 6.285 18.943 4.879 19.969 3.473 20.58 1.846 20.78 0ZM23.582 7.047C22.115 9.297 20.229 11.002 17.92 12.167 15.61 13.332 13.071 13.915 10.301 13.915 7.409 13.915 4.738 13.281 2.29 12.017-.16 10.752-2.119 8.915-3.584 6.505-5.049 4.097-5.783 1.244-5.783-2.048-5.783-5.059-5.039-7.769-3.553-10.179-2.068-12.589-.099-14.466 2.35-15.811 4.798-17.156 7.448-17.828 10.301-17.828 13.272-17.828 15.992-17.146 18.463-15.781 20.932-14.416 22.848-12.528 24.214-10.119L19.877-7.89C18.914-9.577 17.558-10.872 15.813-11.775 14.065-12.678 12.207-13.131 10.24-13.131 8.594-13.091 6.977-12.659 5.392-11.836 3.804-11.013 2.479-9.858 1.416-8.372 .352-6.887-.261-5.22-.42-3.373H26.142C26.222-2.57 26.222-1.787 26.142-1.023 25.901 2.108 25.047 4.798 23.582 7.047" />
<path transform="matrix(1,0,0,-1,544.6631,330.00093)" d="M0 0C-1.045-1.666-2.43-2.961-4.156-3.885-5.884-4.809-7.73-5.27-9.697-5.27-11.587-5.27-13.373-4.798-15.06-3.854-16.745-2.912-18.091-1.606-19.095 .06-20.099 1.727-20.601 3.584-20.601 5.632-20.601 8.001-20.109 10.039-19.124 11.746-18.142 13.453-16.826 14.737-15.178 15.601-13.532 16.464-11.707 16.895-9.697 16.895-7.691 16.895-5.833 16.444-4.127 15.54-2.42 14.638-1.045 13.332 0 11.626 1.043 9.918 1.566 7.921 1.566 5.632 1.566 3.544 1.043 1.666 0 0M1.745 13.462C.782 15.952-.905 17.939-3.314 19.426-5.722 20.91-8.372 21.655-11.264 21.655-14.116 21.655-16.677 21.012-18.943 19.726-21.214 18.441-23 16.584-24.304 14.155-25.609 11.725-26.263 8.885-26.263 5.632-26.263 2.741-25.59 .09-24.245-2.318-22.899-4.728-21.062-6.625-18.733-8.01-16.404-9.396-13.815-10.088-10.964-10.088-8.152-10.088-5.553-9.316-3.164-7.769-.774-6.224 .881-4.207 1.806-1.716V-9.486H7.468V21.052H1.745Z" />
<path transform="matrix(1,0,0,-1,577.0234,309.80329)" d="M0 0H-.007L.005 .021ZM8.846-5.498C5.818-1.705 1.034 .785-3.812 .519-8.658 .253-13.348-3.025-14.764-7.667-14.771-4.834-14.777-2.001-14.783 .832V.87H-20.448V-2.781H-20.446C-20.445-4.778-20.443-6.774-20.442-8.77-20.438-14.05-20.434-19.33-20.43-24.61-20.43-25.032-20.427-29.679-20.427-29.679-18.446-29.677-16.465-29.675-14.484-29.673-14.519-26.084-14.554-22.495-14.589-18.907-14.627-15.054-14.555-10.862-12.15-7.851-10.403-5.663-7.424-3.889-4.625-3.793-1.827-3.697 .945-4.641 3.308-6.144 6.251-8.017 8.517-11.463 9.217-14.88 9.724-17.358 9.276-20.016 8.004-22.202 6.73-24.387 4.647-26.085 2.256-26.91-.542-27.876-3.787-27.607-6.279-26.009-8.771-24.412-10.394-21.462-10.204-18.508-10.015-15.553-7.915-12.76-5.07-11.944-3.331-11.444-1.37-11.688 .136-12.691 1.641-13.695 2.634-15.466 2.598-17.275 2.562-19.083 1.45-20.855-.208-21.58-1.969-22.351-4.298-21.757-5.263-20.095-6.228-18.433-5.399-15.929-3.556-15.383-2.249-14.997-.647-15.76-.313-17.081-.092-17.957-.581-18.907-1.321-19.378-.837-19.107-.437-18.676-.269-18.145 .032-17.189-.366-16.077-1.161-15.466-1.955-14.855-3.081-14.743-4.014-15.109-5.905-15.853-6.651-18.432-5.732-20.244-4.636-22.404-1.632-23.221 .534-22.138 2.7-21.055 3.857-18.404 3.455-16.016 2.884-12.625-.629-10.123-4.06-10.349-7.491-10.576-10.521-13.247-11.538-16.532-12.121-18.412-12.108-20.471-11.507-22.345-10.833-24.452-9.428-26.3-7.64-27.602-4.046-30.219 1.039-30.48 5.007-28.475 8.975-26.471 11.739-22.372 12.382-17.974 13.011-13.663 11.676-9.156 9.012-5.708 8.957-5.638 8.902-5.568 8.846-5.498" />
<path transform="matrix(1,0,0,-1,590.4924,303.3558)" d="M0 0C-1.505 0-2.73-1.224-2.73-2.729-2.73-4.235-1.505-5.46 0-5.46 1.505-5.46 2.73-4.235 2.73-2.729 2.73-1.224 1.505 0 0 0M0-5.629C-1.599-5.629-2.899-4.328-2.899-2.729-2.899-1.131-1.599 .169 0 .169 1.599 .169 2.899-1.131 2.899-2.729 2.899-4.328 1.599-5.629 0-5.629" />
<path transform="matrix(1,0,0,-1,590.8006,305.9791)" d="M0 0C.264 0 .462 .051 .596 .153 .73 .254 .797 .412 .797 .627 .797 .827 .733 .989 .607 1.116 .481 1.242 .277 1.305-.006 1.305H-.875V0ZM-1.407 1.768H0C.49 1.768 .833 1.657 1.031 1.435 1.229 1.213 1.328 .943 1.328 .627 1.328 .341 1.252 .098 1.102-.102 .951-.301 .708-.416 .373-.446L.124-.452 1.09-1.96H.491L-.458-.452H-.875V-1.96H-1.407Z" />
</svg>
